<svg width="100" height="100" viewBox="0 0 100 100" fill="none" xmlns="http://www.w3.org/2000/svg">
<path fill-rule="evenodd" clip-rule="evenodd" d="M77.9 49.1C78.7 48.3 78.7 47.1 77.9 46.3C77.2 45.6 75.9 45.6 75.1 46.2L60.1 61.2C61 62.2 61.9 63.3 62.6 64.4L77.9 49.1ZM40.9 55.3C34.8 55.3 29.8 60.3 29.8 66.4C29.8 72.5 34.8 77.5 40.9 77.5C47 77.5 52 72.5 52 66.4C52 60.3 47 55.3 40.9 55.3ZM21 66.4C23.4 70.1 26.7 73.1 30.5 75C28.5 72.7 27.4 69.6 27.4 66.4C27.4 63.2 28.6 60.1 30.5 57.8C26.6 59.7 23.3 62.7 21 66.4ZM51.5 57.8C53.4 60.1 54.6 63.1 54.6 66.4C54.6 69.6 53.4 72.7 51.5 75C55.4 73.1 58.7 70.1 61 66.4C58.6 62.7 55.3 59.7 51.5 57.8ZM72.9 39.5L70.6 41.8L55.2 57C56.4 57.8 57.4 58.6 58.4 59.5L75.7 42.3C76.5 41.5 76.5 40.3 75.7 39.5C74.9 38.7 73.7 38.7 72.9 39.5ZM53.1 14C52 14 51.1 14.9 51.1 16L51.2 33.3C52.3 33.2 53.5 33.6 54.4 34.5C54.7 34.8 54.9 35.1 55.1 35.5V16C55.1 14.9 54.2 14 53.1 14ZM55 39.4C54.8 39.8 54.6 40.1 54.3 40.4L47.8 47C47.1 47.6 47.1 48.7 47.8 49.4C48.4 50.1 49.5 50.1 50.2 49.4L55 44.6V39.4ZM52.5 36.2C51.9 35.5 50.8 35.5 50.1 36.2L31.9 54.5C34.8 53.4 37.9 52.8 41 52.8C45.2 52.8 49.3 53.9 53 55.8L68.8 40C69.2 39.6 69.4 39.1 69.4 38.6C69.4 38.1 69.2 37.6 68.8 37.2C68 36.4 66.8 36.4 66 37.2L52 51.1C51.2 51.9 50.1 52.3 49 52.3C47.9 52.3 46.8 51.9 46 51.1C44.4 49.4 44.4 46.7 46 45.1L52.5 38.6C52.8 38.3 53 37.9 53 37.4C53 37 52.8 36.5 52.5 36.2ZM21.4 21.6C20.5 21.6 19.7 22.4 19.7 23.3L19.8 60.6C19.8 61.6 19.8 62.4 20 63.3C20.6 62.4 23.4 59.4 23.4 59.4L48.5 34.3V12.7C48.5 11.6 47.6 10.7 46.5 10.7C45.4 10.7 44.5 11.6 44.5 12.7V34.5H42V9.5C42 8.4 41.1 7.5 40 7.5C38.9 7.5 38 8.4 38 9.5V34.5H35.5V12.7C35.5 11.6 34.6 10.7 33.5 10.7C32.4 10.7 31.5 11.6 31.5 12.7V32.4C31.5 34.7 29.6 36.6 27.3 36.6C25 36.6 23.1 34.7 23.1 32.4V23.3C23.1 22.4 22.3 21.6 21.4 21.6ZM50.4 86.7L80.2 56C80.6 55.6 80.8 55.1 80.8 54.7C80.8 54.2 80.6 53.7 80.2 53.3C79.8 52.9 79.3 52.7 78.8 52.7C78.3 52.7 77.8 52.9 77.4 53.3L63.4 67.3C58.7 75.2 50.2 80 41 80C32.6 80 24.7 75.9 19.9 69.2C19.4 70.8 19.1 72.5 19.2 74.2V74.7C19.2 84.6 27.2 92.6 37.1 92.6C41.6 92.6 45.9 90.9 49.2 87.9L50.4 86.7ZM33 66.4C33 62 36.6 58.4 41 58.4C45.4 58.4 49 62 49 66.4C49 70.8 45.4 74.4 41 74.4C36.6 74.4 33 70.8 33 66.4ZM41 71.9C38 71.9 35.5 69.4 35.5 66.4C35.5 63.4 38 60.9 41 60.9C44 60.9 46.5 63.4 46.5 66.4C46.5 69.4 44 71.9 41 71.9Z" fill="#CF142B"/>
</svg>
