<svg width="30" height="30" viewBox="0 0 30 30" xmlns="http://www.w3.org/2000/svg">
<path fill-rule="evenodd" clip-rule="evenodd" d="M15.03 17.5207C14.2485 17.5207 13.4846 17.7524 12.8348 18.1866C12.185 18.6207 11.6786 19.2378 11.3796 19.9598C11.0805 20.6818 11.0022 21.4762 11.1547 22.2427C11.3072 23.0092 11.6835 23.7132 12.2361 24.2658C12.7887 24.8184 13.4927 25.1947 14.2591 25.3471C15.0256 25.4996 15.8201 25.4213 16.542 25.1223C17.264 24.8232 17.8811 24.3168 18.3153 23.667C18.7495 23.0173 18.9812 22.2533 18.9812 21.4719C18.98 20.4243 18.5634 19.42 17.8226 18.6792C17.0819 17.9385 16.0776 17.5218 15.03 17.5207ZM13.9459 23.0945C14.2668 23.3089 14.6441 23.4234 15.03 23.4234C15.5473 23.4228 16.0432 23.2171 16.409 22.8513C16.7748 22.4855 16.9806 21.9896 16.9812 21.4723C16.9812 21.0863 16.8668 20.7091 16.6524 20.3882C16.438 20.0673 16.1333 19.8172 15.7767 19.6695C15.4202 19.5218 15.0279 19.4832 14.6494 19.5584C14.2709 19.6337 13.9232 19.8195 13.6503 20.0924C13.3774 20.3653 13.1916 20.713 13.1163 21.0915C13.041 21.47 13.0796 21.8623 13.2273 22.2188C13.375 22.5754 13.6251 22.8801 13.9459 23.0945Z" />
<path fill-rule="evenodd" clip-rule="evenodd" d="M23.8435 10.0305C23.8445 9.63636 23.7673 9.24597 23.6165 8.88189C23.4656 8.51781 23.244 8.18726 22.9646 7.90936L15.737 0.681261C15.5459 0.500634 15.2929 0.399994 15.03 0.399994C14.767 0.399994 14.5141 0.500634 14.323 0.681261L7.09539 7.90936C6.81594 8.18726 6.59437 8.51781 6.44351 8.88189C6.29265 9.24597 6.21549 9.63636 6.21649 10.0305C6.21749 10.4246 6.26099 10.7751 6.44351 11.2052C6.61879 11.6183 6.76993 11.8578 7.09539 12.18C7.72948 12.8077 8.42686 13.04 9.21649 13.04C10.1129 13.04 10.7747 12.7134 11.3376 12.1515C11.8637 11.6263 12.03 11.05 12.03 11.05V13.6651C9.84227 14.0707 7.76301 14.9274 5.92464 16.1808C4.08627 17.4342 2.52909 19.0567 1.35229 20.9451C1.25261 21.1045 1.19984 21.2889 1.2 21.4769C1.20016 21.665 1.25324 21.8492 1.35319 22.0086C2.80943 24.3198 4.82763 26.2243 7.21934 27.5442C9.61105 28.8641 12.2982 29.5564 15.03 29.5564C17.7617 29.5564 20.4489 28.8641 22.8406 27.5442C25.2323 26.2243 27.2505 24.3198 28.7068 22.0086C28.8067 21.8492 28.8598 21.665 28.86 21.4769C28.8601 21.2889 28.8074 21.1045 28.7077 20.9451C27.5309 19.0567 25.9737 17.4342 24.1353 16.1808C22.297 14.9274 20.2177 14.0707 18.03 13.6651V11.05C18.03 11.05 18.1593 11.5897 18.7223 12.1515C19.2852 12.7132 20.048 13.0288 20.8433 13.0288C21.6386 13.0289 22.3295 12.7927 22.9645 12.17C23.2398 11.9 23.5707 11.4602 23.73 10.9C23.8237 10.5706 23.8425 10.4246 23.8435 10.0305ZM15.03 2.80236L8.50999 9.32336C8.4171 9.41614 8.34291 9.52632 8.29264 9.6476C8.24236 9.76888 8.21648 9.89888 8.21648 10.0302C8.21648 10.1614 8.24236 10.2914 8.29264 10.4127C8.34291 10.534 8.4166 10.6442 8.50949 10.737C8.69703 10.9244 8.95129 11.0297 9.21643 11.0298C9.48157 11.0299 9.73591 10.9247 9.92359 10.7375L12.323 8.33856C12.4628 8.19875 12.641 8.10355 12.835 8.06498C13.0289 8.02641 13.2299 8.04621 13.4126 8.12188C13.5953 8.19755 13.7515 8.32569 13.8614 8.4901C13.9713 8.65451 14.0299 8.84781 14.03 9.04556V13.4185C14.3615 13.3984 14.6947 13.3869 15.03 13.3869C15.3653 13.3869 15.6985 13.3985 16.03 13.4185V9.04556C16.03 8.84781 16.0887 8.65451 16.1986 8.4901C16.3085 8.32569 16.4646 8.19755 16.6473 8.12188C16.83 8.04621 17.0311 8.02641 17.225 8.06498C17.419 8.10355 17.5971 8.19875 17.737 8.33856L20.1359 10.7375C20.2283 10.8323 20.3386 10.9077 20.4604 10.9596C20.5823 11.0114 20.7132 11.0385 20.8456 11.0394C20.9779 11.0402 21.1092 11.0147 21.2316 10.9645C21.3541 10.9142 21.4654 10.8401 21.559 10.7465C21.6526 10.6529 21.7267 10.5416 21.777 10.4191C21.8273 10.2967 21.8527 10.1654 21.8519 10.033C21.851 9.90065 21.8239 9.76975 21.7721 9.64792C21.7203 9.5261 21.6448 9.41578 21.55 9.32336L15.03 2.80236ZM11.7237 26.4204C12.7023 27.0743 13.8529 27.4234 15.03 27.4234C16.6078 27.4215 18.1204 26.7939 19.236 25.6783C20.3517 24.5626 20.9793 23.05 20.9812 21.4723C20.9812 20.2952 20.6322 19.1446 19.9783 18.1659C19.3244 17.1872 18.3949 16.4244 17.3075 15.974C16.22 15.5235 15.0235 15.4057 13.869 15.6353C12.7146 15.8649 11.6542 16.4317 10.8219 17.264C9.98959 18.0963 9.42278 19.1567 9.19314 20.3111C8.96351 21.4655 9.08135 22.6621 9.53178 23.7496C9.98221 24.837 10.745 25.7665 11.7237 26.4204ZM3.39719 21.4762C4.699 23.3613 6.44107 24.9003 8.47229 25.9599C7.56476 24.6393 7.07864 23.0747 7.07864 21.4724C7.07864 19.8701 7.56446 18.3055 8.47199 16.985C6.43937 18.0457 4.69713 19.5876 3.39719 21.4762ZM26.6628 21.4758C25.3628 19.5872 23.6206 18.0453 21.588 16.9846C22.4955 18.3051 22.981 19.8697 22.981 21.472C22.981 23.0743 22.4952 24.6389 21.5877 25.9595C23.6189 24.8999 25.361 23.3609 26.6628 21.4758Z" />
</svg>
