<svg xmlns="http://www.w3.org/2000/svg" xmlns:xlink="http://www.w3.org/1999/xlink" version="1.1" x="0px" y="0px" viewBox="0 0 66 66" style="enable-background:new 0 0 66 66;" xml:space="preserve"><path d="M30.2,18.92c0.66,1.19,1.03,2.55,1.03,4.01c0,1.45-0.38,2.82-1.03,4.01c1.54-1.02,2.97-2.35,4.25-4.01  C33.18,21.28,31.74,19.95,30.2,18.92z"/><path d="M34.2,11.66c-3.01-3.01-7.01-4.66-11.27-4.66s-8.27,1.66-11.27,4.66c-6.22,6.22-6.22,16.33,0,22.55  c3.01,3.01,7.01,4.66,11.27,4.66s8.27-1.66,11.27-4.66C40.42,27.99,40.42,17.87,34.2,11.66z M22.93,31.24  c-5.16,0-9.98-2.74-13.59-7.72c-0.25-0.35-0.25-0.82,0-1.17c3.61-4.98,8.43-7.72,13.59-7.72c0,0,0,0,0,0c0,0,0,0,0,0c0,0,0,0,0,0  c5.16,0,9.98,2.74,13.59,7.72c0.25,0.35,0.25,0.82,0,1.17C32.91,28.5,28.09,31.24,22.93,31.24z"/><path d="M37.74,8.12C33.65,4.04,28.29,2,22.93,2C17.57,2,12.2,4.04,8.12,8.12c-8.17,8.17-8.17,21.45,0,29.62  c8.17,8.17,21.45,8.17,29.62,0C45.9,29.57,45.9,16.29,37.74,8.12z M22.93,40.87c-4.8,0-9.3-1.86-12.69-5.25c-7-7-7-18.38,0-25.38  c3.38-3.38,7.89-5.25,12.69-5.25s9.3,1.86,12.69,5.25c7,7,7,18.38,0,25.38C32.23,39,27.73,40.87,22.93,40.87z"/><circle cx="22.93" cy="22.93" r="2.12"/><path d="M22.93,16.62c-0.25,0-0.5,0.03-0.75,0.05c-3.13,0.37-5.56,3.04-5.56,6.26c0,3.22,2.43,5.89,5.56,6.26  c0.25,0.02,0.5,0.05,0.75,0.05s0.5-0.03,0.75-0.05c3.13-0.37,5.56-3.04,5.56-6.26c0-3.23-2.43-5.89-5.56-6.26  C23.43,16.65,23.18,16.62,22.93,16.62C22.93,16.62,22.93,16.62,22.93,16.62z M22.93,27.05c-2.27,0-4.12-1.85-4.12-4.12  s1.85-4.12,4.12-4.12s4.12,1.85,4.12,4.12S25.2,27.05,22.93,27.05z"/><path d="M14.62,22.93c0-1.45,0.38-2.82,1.03-4.01c-1.54,1.02-2.97,2.35-4.25,4.01c1.28,1.65,2.72,2.98,4.26,4.01  C15,25.75,14.62,24.38,14.62,22.93z"/><path d="M61.77,53.55L45.52,40.79l-4.73,4.73l12.76,16.25c1.03,1.32,2.58,2.13,4.25,2.23c1.67,0.1,3.3-0.52,4.49-1.7  c1.18-1.18,1.8-2.82,1.7-4.49C63.89,56.14,63.08,54.58,61.77,53.55z M60.48,60.48c-0.63,0.63-1.47,0.98-2.36,0.98  s-1.73-0.35-2.36-0.98s-0.98-1.47-0.98-2.36c0-0.89,0.35-1.73,0.98-2.36s1.47-0.98,2.36-0.98c0.89,0,1.73,0.35,2.36,0.98  c0.63,0.63,0.98,1.47,0.98,2.36C61.46,59.02,61.11,59.85,60.48,60.48z"/><path d="M38.75,44.73l5.99-5.99c0,0,0,0,0,0l1.08-1.08c0.38-0.38,0.59-0.88,0.59-1.41s-0.21-1.04-0.59-1.41l-2.15-2.15  c-1.1,2.34-2.58,4.54-4.51,6.46s-4.13,3.41-6.46,4.51l2.15,2.15c0.75,0.75,2.07,0.76,2.83,0L38.75,44.73  C38.74,44.74,38.74,44.73,38.75,44.73z"/></svg>
