<svg width="100" height="100" viewBox="0 0 100 100" xmlns="http://www.w3.org/2000/svg">
<path d="M41 58.4C36.6 58.4 33 62 33 66.4C33 70.8 36.6 74.4 41 74.4C45.4 74.4 49 70.8 49 66.4C49 62 45.4 58.4 41 58.4ZM41 71.9C38 71.9 35.5 69.4 35.5 66.4C35.5 63.4 38 60.9 41 60.9C44 60.9 46.5 63.4 46.5 66.4C46.5 69.4 44 71.9 41 71.9Z"/>
<path d="M83.3 54.6C83.3 53.4 82.8 52.3 82 51.4C81.5 50.9 80.9 50.5 80.2 50.3C81.5 48.5 81.3 46.1 79.7 44.5C79.2 44 78.5 43.6 77.9 43.4C79.2 41.6 79 39.2 77.4 37.6C75.8 36 73.4 35.9 71.6 37.1C71.4 36.4 71 35.8 70.5 35.3C68.8 33.5 65.9 33.5 64.2 35.3L57.5 42V16C57.5 13.5 55.5 11.5 53 11.5C52.3 11.5 51.6 11.7 50.9 12C50.5 9.9 48.7 8.2 46.5 8.2C45.8 8.2 45.1 8.4 44.4 8.7C44.2 6.6 42.3 5 40.1 5C37.9 5 36 6.6 35.7 8.8C35.1 8.5 34.4 8.3 33.6 8.3C31.1 8.3 29.1 10.3 29.1 12.8V32.5C29.1 33.4 28.3 34.2 27.4 34.2C26.5 34.2 25.7 33.4 25.7 32.5V23.3C25.7 21 23.8 19.1 21.5 19.1C19.2 19.1 17.3 21 17.3 23.3V60.6C17.3 62.6 17.6 64.5 18.2 66.3V66.4V66.5C17.1 68.9 16.6 71.6 16.7 74.2V74.6C16.7 85.9 25.9 95 37.1 95C42.2 95 47.1 93.1 50.9 89.6L52.1 88.4L82 57.8C82.9 56.9 83.3 55.8 83.3 54.6ZM77.9 46.3C78.7 47.1 78.7 48.3 77.9 49.1L75.6 51.4L62.6 64.4C61.9 63.3 61 62.2 60.1 61.2L75.1 46.2C75.9 45.6 77.2 45.6 77.9 46.3ZM29.8 66.4C29.8 60.3 34.8 55.3 40.9 55.3C47 55.3 52 60.3 52 66.4C52 72.5 47 77.5 40.9 77.5C34.8 77.5 29.8 72.5 29.8 66.4ZM30.5 75C26.7 73.1 23.4 70.1 21 66.4C23.3 62.7 26.6 59.7 30.5 57.8C28.6 60.1 27.4 63.2 27.4 66.4C27.4 69.6 28.5 72.7 30.5 75ZM54.6 66.4C54.6 63.1 53.4 60.1 51.5 57.8C55.3 59.7 58.6 62.7 61 66.4C58.7 70.1 55.4 73.1 51.5 75C53.4 72.7 54.6 69.6 54.6 66.4ZM70.6 41.8L72.9 39.5C73.7 38.7 74.9 38.7 75.7 39.5C76.5 40.3 76.5 41.5 75.7 42.3L58.4 59.5C57.4 58.6 56.4 57.8 55.2 57L70.6 41.8ZM51.1 16C51.1 14.9 52 14 53.1 14C54.2 14 55.1 14.9 55.1 16V35.5C54.9 35.1 54.7 34.8 54.4 34.5C53.5 33.6 52.3 33.2 51.2 33.3L51.1 16ZM54.3 40.4C54.6 40.1 54.8 39.8 55 39.4V44.6L50.2 49.4C49.5 50.1 48.4 50.1 47.8 49.4C47.1 48.7 47.1 47.6 47.8 47L54.3 40.4ZM50.1 36.2C50.8 35.5 51.9 35.5 52.5 36.2C52.8 36.5 53 37 53 37.4C53 37.9 52.8 38.3 52.5 38.6L46 45.1C44.4 46.7 44.4 49.4 46 51.1C46.8 51.9 47.9 52.3 49 52.3C50.1 52.3 51.2 51.9 52 51.1L66 37.2C66.8 36.4 68 36.4 68.8 37.2C69.2 37.6 69.4 38.1 69.4 38.6C69.4 39.1 69.2 39.6 68.8 40L53 55.8C49.3 53.9 45.2 52.8 41 52.8C37.9 52.8 34.8 53.4 31.9 54.5L50.1 36.2ZM19.7 23.3C19.7 22.4 20.5 21.6 21.4 21.6C22.3 21.6 23.1 22.4 23.1 23.3V32.4C23.1 34.7 25 36.6 27.3 36.6C29.6 36.6 31.5 34.7 31.5 32.4V12.7C31.5 11.6 32.4 10.7 33.5 10.7C34.6 10.7 35.5 11.6 35.5 12.7V34.5H38V9.5C38 8.4 38.9 7.5 40 7.5C41.1 7.5 42 8.4 42 9.5V34.5H44.5V12.7C44.5 11.6 45.4 10.7 46.5 10.7C47.6 10.7 48.5 11.6 48.5 12.7V34.3C48.4 34.4 23.4 59.4 23.4 59.4C23.4 59.4 20.6 62.4 20 63.3C19.8 62.4 19.8 61.6 19.8 60.6L19.7 23.3ZM80.2 56L50.4 86.7L49.2 87.9C45.9 90.9 41.6 92.6 37.1 92.6C27.2 92.6 19.2 84.6 19.2 74.7V74.2C19.1 72.5 19.4 70.8 19.9 69.2C24.7 75.9 32.6 80 41 80C50.2 80 58.7 75.2 63.4 67.3L77.4 53.3C77.8 52.9 78.3 52.7 78.8 52.7C79.3 52.7 79.8 52.9 80.2 53.3C80.6 53.7 80.8 54.2 80.8 54.7C80.8 55.1 80.6 55.6 80.2 56Z"/>
</svg>
